<svg width="126" height="127" viewBox="0 0 126 127" fill="none" xmlns="http://www.w3.org/2000/svg">
<ellipse cx="63" cy="63.5" rx="63" ry="63.5" fill="#FBFBFB"/>
<path d="M62.5 41.5C63.2376 41.5 63.9451 41.7963 64.4666 42.3238C64.9882 42.8512 65.2812 43.5666 65.2812 44.3125V61.1875H81.9688C82.7064 61.1875 83.4138 61.4838 83.9354 62.0113C84.457 62.5387 84.75 63.2541 84.75 64C84.75 64.7459 84.457 65.4613 83.9354 65.9887C83.4138 66.5162 82.7064 66.8125 81.9688 66.8125H65.2812V83.6875C65.2812 84.4334 64.9882 85.1488 64.4666 85.6762C63.9451 86.2037 63.2376 86.5 62.5 86.5C61.7624 86.5 61.0549 86.2037 60.5334 85.6762C60.0118 85.1488 59.7188 84.4334 59.7188 83.6875V66.8125H43.0312C42.2936 66.8125 41.5862 66.5162 41.0646 65.9887C40.543 65.4613 40.25 64.7459 40.25 64C40.25 63.2541 40.543 62.5387 41.0646 62.0113C41.5862 61.4838 42.2936 61.1875 43.0312 61.1875H59.7188V44.3125C59.7188 43.5666 60.0118 42.8512 60.5334 42.3238C61.0549 41.7963 61.7624 41.5 62.5 41.5Z" fill="#3A3A3A"/>
</svg>
