<svg width="38" height="38" viewBox="0 0 38 38" fill="none" xmlns="http://www.w3.org/2000/svg">
<g filter="url(#filter0_d_705_2)">
<rect x="34" y="30" width="30" height="30" rx="15" transform="rotate(180 34 30)" fill="#9C2729"/>
</g>
<path d="M10.6263 14.6263C10.2357 15.0168 10.2357 15.65 10.6263 16.0405L16.9902 22.4044C17.3808 22.795 18.0139 22.795 18.4044 22.4044C18.795 22.0139 18.795 21.3808 18.4044 20.9902L12.7476 15.3334L18.4044 9.67652C18.795 9.286 18.795 8.65283 18.4044 8.26231C18.0139 7.87178 17.3808 7.87178 16.9902 8.26231L10.6263 14.6263ZM27.3334 14.3334L11.3334 14.3334V16.3334L27.3334 16.3334V14.3334Z" fill="white"/>
<defs>
<filter id="filter0_d_705_2" x="0" y="0" width="38" height="38" filterUnits="userSpaceOnUse" color-interpolation-filters="sRGB">
<feFlood flood-opacity="0" result="BackgroundImageFix"/>
<feColorMatrix in="SourceAlpha" type="matrix" values="0 0 0 0 0 0 0 0 0 0 0 0 0 0 0 0 0 0 127 0" result="hardAlpha"/>
<feOffset dy="4"/>
<feGaussianBlur stdDeviation="2"/>
<feComposite in2="hardAlpha" operator="out"/>
<feColorMatrix type="matrix" values="0 0 0 0 0 0 0 0 0 0 0 0 0 0 0 0 0 0 0.25 0"/>
<feBlend mode="normal" in2="BackgroundImageFix" result="effect1_dropShadow_705_2"/>
<feBlend mode="normal" in="SourceGraphic" in2="effect1_dropShadow_705_2" result="shape"/>
</filter>
</defs>
</svg>
