<svg width="128" height="128" viewBox="0 0 128 128" fill="none" xmlns="http://www.w3.org/2000/svg">
<path d="M80.1779 48.3342C80.6995 48.8558 80.9902 49.5655 80.9861 50.3073C80.9819 51.0491 80.6833 51.7621 80.1559 52.2896L68.2234 64.222L80.0233 76.0218C80.5449 76.5434 80.8356 77.2532 80.8314 77.995C80.8273 78.7367 80.5286 79.4498 80.0012 79.9772C79.4737 80.5047 78.7607 80.8033 78.0189 80.8075C77.2771 80.8116 76.5674 80.5209 76.0458 79.9993L64.246 68.1995L52.3135 80.1319C51.7861 80.6594 51.073 80.958 50.3313 80.9621C49.5895 80.9663 48.8797 80.6756 48.3581 80.154C47.8366 79.6324 47.5459 78.9227 47.55 78.1809C47.5542 77.4391 47.8528 76.7261 48.3802 76.1986L60.3127 64.2662L48.5128 52.4664C47.9912 51.9448 47.7005 51.235 47.7047 50.4932C47.7088 49.7515 48.0075 49.0384 48.5349 48.511C49.0624 47.9835 49.7754 47.6849 50.5172 47.6807C51.259 47.6766 51.9687 47.9673 52.4903 48.4889L64.2901 60.2887L76.2226 48.3563C76.75 47.8289 77.4631 47.5302 78.2048 47.5261C78.9466 47.5219 79.6564 47.8126 80.1779 48.3342V48.3342Z" fill="#3A3A3A"/>
</svg>
