<svg width="16" height="15" viewBox="0 0 16 15" fill="none" xmlns="http://www.w3.org/2000/svg">
<path d="M8.00002 2.74805L7.28302 2.01105C5.60002 0.281049 2.51402 0.878049 1.40002 3.05305C0.877017 4.07605 0.759017 5.55305 1.71402 7.43805C2.63402 9.25305 4.54802 11.427 8.00002 13.795C11.452 11.427 13.365 9.25305 14.286 7.43805C15.241 5.55205 15.124 4.07605 14.6 3.05305C13.486 0.878049 10.4 0.280049 8.71702 2.01005L8.00002 2.74805ZM8.00002 15C-7.33298 4.86805 3.27902 -3.03995 7.82402 1.14305C7.88402 1.19805 7.94302 1.25505 8.00002 1.31405C8.05644 1.2551 8.11515 1.19839 8.17602 1.14405C12.72 -3.04195 23.333 4.86705 8.00002 15Z" fill="white"/>
</svg>
