<svg width="16" height="12" viewBox="0 0 16 12" fill="none" xmlns="http://www.w3.org/2000/svg">
<path fill-rule="evenodd" clip-rule="evenodd" d="M7.00355e-07 11.3333C7.00355e-07 11.1565 0.076624 10.9869 0.213014 10.8619C0.349404 10.7369 0.534389 10.6666 0.727274 10.6666H15.2727C15.4656 10.6666 15.6506 10.7369 15.787 10.8619C15.9234 10.9869 16 11.1565 16 11.3333C16 11.5101 15.9234 11.6797 15.787 11.8047C15.6506 11.9297 15.4656 12 15.2727 12H0.727274C0.534389 12 0.349404 11.9297 0.213014 11.8047C0.076624 11.6797 7.00355e-07 11.5101 7.00355e-07 11.3333ZM7.00355e-07 5.99997C7.00355e-07 5.82316 0.076624 5.65359 0.213014 5.52857C0.349404 5.40354 0.534389 5.3333 0.727274 5.3333H15.2727C15.4656 5.3333 15.6506 5.40354 15.787 5.52857C15.9234 5.65359 16 5.82316 16 5.99997C16 6.17678 15.9234 6.34635 15.787 6.47137C15.6506 6.5964 15.4656 6.66664 15.2727 6.66664H0.727274C0.534389 6.66664 0.349404 6.5964 0.213014 6.47137C0.076624 6.34635 7.00355e-07 6.17678 7.00355e-07 5.99997ZM7.00355e-07 0.666636C7.00355e-07 0.489825 0.076624 0.320256 0.213014 0.195232C0.349404 0.0702075 0.534389 -3.05176e-05 0.727274 -3.05176e-05H15.2727C15.4656 -3.05176e-05 15.6506 0.0702075 15.787 0.195232C15.9234 0.320256 16 0.489825 16 0.666636C16 0.843447 15.9234 1.01302 15.787 1.13804C15.6506 1.26306 15.4656 1.3333 15.2727 1.3333H0.727274C0.534389 1.3333 0.349404 1.26306 0.213014 1.13804C0.076624 1.01302 7.00355e-07 0.843447 7.00355e-07 0.666636Z" fill="#638990"/>
</svg>
