<svg width="17" height="14" viewBox="0 0 17 14" fill="none" xmlns="http://www.w3.org/2000/svg">
<path fill-rule="evenodd" clip-rule="evenodd" d="M0 12.75C0 12.5511 0.0790178 12.3603 0.21967 12.2197C0.360322 12.079 0.551088 12 0.75 12H15.75C15.9489 12 16.1397 12.079 16.2803 12.2197C16.421 12.3603 16.5 12.5511 16.5 12.75C16.5 12.9489 16.421 13.1397 16.2803 13.2803C16.1397 13.421 15.9489 13.5 15.75 13.5H0.75C0.551088 13.5 0.360322 13.421 0.21967 13.2803C0.0790178 13.1397 0 12.9489 0 12.75ZM0 6.75C0 6.55109 0.0790178 6.36032 0.21967 6.21967C0.360322 6.07902 0.551088 6 0.75 6H15.75C15.9489 6 16.1397 6.07902 16.2803 6.21967C16.421 6.36032 16.5 6.55109 16.5 6.75C16.5 6.94891 16.421 7.13968 16.2803 7.28033C16.1397 7.42098 15.9489 7.5 15.75 7.5H0.75C0.551088 7.5 0.360322 7.42098 0.21967 7.28033C0.0790178 7.13968 0 6.94891 0 6.75ZM0 0.75C0 0.551088 0.0790178 0.360322 0.21967 0.21967C0.360322 0.0790178 0.551088 0 0.75 0H15.75C15.9489 0 16.1397 0.0790178 16.2803 0.21967C16.421 0.360322 16.5 0.551088 16.5 0.75C16.5 0.948912 16.421 1.13968 16.2803 1.28033C16.1397 1.42098 15.9489 1.5 15.75 1.5H0.75C0.551088 1.5 0.360322 1.42098 0.21967 1.28033C0.0790178 1.13968 0 0.948912 0 0.75V0.75Z" fill="#83957E"/>
</svg>
