<svg width="33" height="23" viewBox="0 0 33 23" fill="none" xmlns="http://www.w3.org/2000/svg">
<rect width="33" height="23" fill="#EAEAEA"/>
<path d="M5.30922 15.9959C4.41535 15.9627 3.68402 15.734 3.11219 15.3091C3.00305 15.2279 2.743 14.9845 2.65576 14.8819C2.42387 14.6092 2.26622 14.3438 2.16107 14.0493C1.8375 13.1428 2.00403 11.9533 2.63739 10.6479C3.17969 9.53025 4.01647 8.42179 5.47637 6.88657C5.69142 6.66067 6.33182 6 6.33596 6C6.33749 6 6.30259 6.05655 6.25866 6.12541C5.87907 6.72008 5.55428 7.42055 5.37734 8.02696C5.0931 9 5.12739 9.83503 5.47774 10.4825C5.71943 10.9286 6.13376 11.315 6.59968 11.5286C7.41534 11.9024 8.60953 11.9333 10.0679 11.6191C10.1683 11.5973 15.1437 10.362 21.1244 8.87388C27.1051 7.38562 31.9992 6.16893 32 6.16993C32.0017 6.17122 18.1051 11.7329 10.8912 14.6182C9.74876 15.075 9.44325 15.1904 8.90616 15.3668C7.5332 15.8177 6.30336 16.0329 5.30922 15.9959Z" fill="black"/>
</svg>
