<svg width="53" height="53" viewBox="0 0 53 53" fill="none" xmlns="http://www.w3.org/2000/svg">
<g filter="url(#filter0_d_682_147)">
<rect x="49" width="45" height="45" rx="22.5" transform="rotate(90 49 0)" fill="white"/>
</g>
<path d="M26.2929 34.7071C26.6834 35.0976 27.3166 35.0976 27.7071 34.7071L34.0711 28.3431C34.4616 27.9526 34.4616 27.3195 34.0711 26.9289C33.6805 26.5384 33.0474 26.5384 32.6569 26.9289L27 32.5858L21.3431 26.9289C20.9526 26.5384 20.3195 26.5384 19.9289 26.9289C19.5384 27.3195 19.5384 27.9526 19.9289 28.3431L26.2929 34.7071ZM26 10L26 34H28L28 10H26Z" fill="black"/>
<defs>
<filter id="filter0_d_682_147" x="0" y="0" width="53" height="53" filterUnits="userSpaceOnUse" color-interpolation-filters="sRGB">
<feFlood flood-opacity="0" result="BackgroundImageFix"/>
<feColorMatrix in="SourceAlpha" type="matrix" values="0 0 0 0 0 0 0 0 0 0 0 0 0 0 0 0 0 0 127 0" result="hardAlpha"/>
<feOffset dy="4"/>
<feGaussianBlur stdDeviation="2"/>
<feComposite in2="hardAlpha" operator="out"/>
<feColorMatrix type="matrix" values="0 0 0 0 0 0 0 0 0 0 0 0 0 0 0 0 0 0 0.25 0"/>
<feBlend mode="normal" in2="BackgroundImageFix" result="effect1_dropShadow_682_147"/>
<feBlend mode="normal" in="SourceGraphic" in2="effect1_dropShadow_682_147" result="shape"/>
</filter>
</defs>
</svg>
