<svg width="32" height="32" viewBox="0 0 32 32" fill="none" xmlns="http://www.w3.org/2000/svg">
<g filter="url(#filter0_d_725_2)">
<rect x="28" y="24" width="24" height="24" rx="12" transform="rotate(180 28 24)" fill="#49494B"/>
</g>
<path d="M9.15952 11.5596C8.76899 11.9501 8.76899 12.5833 9.15952 12.9738L15.5235 19.3378C15.914 19.7283 16.5472 19.7283 16.9377 19.3378C17.3282 18.9473 17.3282 18.3141 16.9377 17.9236L11.2808 12.2667L16.9377 6.60987C17.3282 6.21935 17.3282 5.58618 16.9377 5.19566C16.5472 4.80513 15.914 4.80513 15.5235 5.19566L9.15952 11.5596ZM22.6666 11.2667L9.86663 11.2667V13.2667L22.6666 13.2667V11.2667Z" fill="white"/>
<defs>
<filter id="filter0_d_725_2" x="0" y="0" width="32" height="32" filterUnits="userSpaceOnUse" color-interpolation-filters="sRGB">
<feFlood flood-opacity="0" result="BackgroundImageFix"/>
<feColorMatrix in="SourceAlpha" type="matrix" values="0 0 0 0 0 0 0 0 0 0 0 0 0 0 0 0 0 0 127 0" result="hardAlpha"/>
<feOffset dy="4"/>
<feGaussianBlur stdDeviation="2"/>
<feComposite in2="hardAlpha" operator="out"/>
<feColorMatrix type="matrix" values="0 0 0 0 0 0 0 0 0 0 0 0 0 0 0 0 0 0 0.25 0"/>
<feBlend mode="normal" in2="BackgroundImageFix" result="effect1_dropShadow_725_2"/>
<feBlend mode="normal" in="SourceGraphic" in2="effect1_dropShadow_725_2" result="shape"/>
</filter>
</defs>
</svg>
