<svg width="45" height="45" viewBox="0 0 45 45" fill="none" xmlns="http://www.w3.org/2000/svg">
<rect width="45" height="45" rx="22.5" fill="white"/>
<g clip-path="url(#clip0_678_53)">
<path d="M27.4572 25.9299C28.6161 24.2782 29.1351 22.2305 28.9105 20.1963C28.6859 18.1621 27.7342 16.2916 26.2457 14.9588C24.7573 13.626 22.842 12.9294 20.8829 13.0082C18.9239 13.0871 17.0655 13.9356 15.6797 15.384C14.2939 16.8324 13.4828 18.774 13.4088 20.8202C13.3347 22.8664 14.003 24.8663 15.2802 26.4199C16.5573 27.9735 18.3489 28.9662 20.2967 29.1994C22.2445 29.4325 24.2047 28.8889 25.7853 27.6774H25.7841C25.82 27.7274 25.8583 27.7749 25.9013 27.8211L30.5091 32.6336C30.7335 32.8682 31.0379 33 31.3554 33.0001C31.6729 33.0003 31.9774 32.8686 32.2019 32.6343C32.4265 32.3999 32.5527 32.0819 32.5529 31.7503C32.553 31.4187 32.427 31.1007 32.2025 30.8661L27.5948 26.0536C27.552 26.0084 27.506 25.9666 27.4572 25.9286V25.9299ZM27.766 21.1249C27.766 22.0277 27.5957 22.9217 27.2649 23.7558C26.9341 24.5899 26.4493 25.3478 25.838 25.9862C25.2268 26.6246 24.5011 27.1311 23.7025 27.4766C22.9039 27.8221 22.0479 27.9999 21.1835 27.9999C20.3191 27.9999 19.4632 27.8221 18.6645 27.4766C17.8659 27.1311 17.1403 26.6246 16.529 25.9862C15.9178 25.3478 15.4329 24.5899 15.1021 23.7558C14.7713 22.9217 14.6011 22.0277 14.6011 21.1249C14.6011 19.3015 15.2946 17.5528 16.529 16.2635C17.7635 14.9742 19.4378 14.2499 21.1835 14.2499C22.9293 14.2499 24.6036 14.9742 25.838 16.2635C27.0725 17.5528 27.766 19.3015 27.766 21.1249V21.1249Z" fill="black"/>
</g>
<defs>
<clipPath id="clip0_678_53">
<rect width="19.1489" height="20" fill="white" transform="translate(13.4043 13)"/>
</clipPath>
</defs>
</svg>
