<svg width="33" height="34" viewBox="0 0 33 34" fill="none" xmlns="http://www.w3.org/2000/svg">
<g clip-path="url(#clip0_505_78)">
<path d="M16.5 10.625C17.047 10.625 17.5716 10.8489 17.9584 11.2474C18.3452 11.6459 18.5625 12.1864 18.5625 12.75V14.875H14.4375V12.75C14.4375 12.1864 14.6548 11.6459 15.0416 11.2474C15.4284 10.8489 15.953 10.625 16.5 10.625ZM20.625 15.0365V12.75C20.625 11.6228 20.1904 10.5418 19.4168 9.7448C18.6432 8.94777 17.594 8.5 16.5 8.5C15.406 8.5 14.3568 8.94777 13.5832 9.7448C12.8096 10.5418 12.375 11.6228 12.375 12.75V15.0365C11.2612 15.3893 10.3125 16.3051 10.3125 17.6375V22.7375C10.3125 24.4715 11.9233 25.5 13.4062 25.5H19.5938C21.0767 25.5 22.6875 24.4715 22.6875 22.7375V17.6375C22.6875 16.3051 21.7388 15.3893 20.625 15.0365Z" fill="#696969"/>
<path d="M8.25 0C7.15598 0 6.10677 0.447767 5.33318 1.2448C4.5596 2.04183 4.125 3.12283 4.125 4.25V29.75C4.125 30.8772 4.5596 31.9582 5.33318 32.7552C6.10677 33.5522 7.15598 34 8.25 34H24.75C25.844 34 26.8932 33.5522 27.6668 32.7552C28.4404 31.9582 28.875 30.8772 28.875 29.75V4.25C28.875 3.12283 28.4404 2.04183 27.6668 1.2448C26.8932 0.447767 25.844 0 24.75 0L8.25 0ZM8.25 2.125H24.75C25.297 2.125 25.8216 2.34888 26.2084 2.7474C26.5952 3.14591 26.8125 3.68641 26.8125 4.25V29.75C26.8125 30.3136 26.5952 30.8541 26.2084 31.2526C25.8216 31.6511 25.297 31.875 24.75 31.875H8.25C7.70299 31.875 7.17839 31.6511 6.79159 31.2526C6.4048 30.8541 6.1875 30.3136 6.1875 29.75V4.25C6.1875 3.68641 6.4048 3.14591 6.79159 2.7474C7.17839 2.34888 7.70299 2.125 8.25 2.125Z" fill="#696969"/>
</g>
<defs>
<clipPath id="clip0_505_78">
<rect width="33" height="34" fill="white"/>
</clipPath>
</defs>
</svg>
