<svg width="23" height="26" viewBox="0 0 23 26" fill="none" xmlns="http://www.w3.org/2000/svg">
<g filter="url(#filter0_d_180_61)">
<path d="M11.5 1.125C12.2104 1.125 12.8917 1.42132 13.394 1.94876C13.8964 2.47621 14.1786 3.19158 14.1786 3.9375V4.5H8.82143V3.9375C8.82143 3.19158 9.10363 2.47621 9.60596 1.94876C10.1083 1.42132 10.7896 1.125 11.5 1.125V1.125ZM15.25 4.5V3.9375C15.25 2.89321 14.8549 1.89169 14.1516 1.15327C13.4484 0.414843 12.4946 0 11.5 0C10.5054 0 9.55161 0.414843 8.84835 1.15327C8.14509 1.89169 7.75 2.89321 7.75 3.9375V4.5H4V15.75C4 16.3467 4.22576 16.919 4.62763 17.341C5.02949 17.7629 5.57454 18 6.14286 18H16.8571C17.4255 18 17.9705 17.7629 18.3724 17.341C18.7742 16.919 19 16.3467 19 15.75V4.5H15.25ZM5.07143 5.625H17.9286V15.75C17.9286 16.0484 17.8157 16.3345 17.6148 16.5455C17.4138 16.7565 17.1413 16.875 16.8571 16.875H6.14286C5.8587 16.875 5.58617 16.7565 5.38524 16.5455C5.18431 16.3345 5.07143 16.0484 5.07143 15.75V5.625Z" fill="white"/>
</g>
<defs>
<filter id="filter0_d_180_61" x="0" y="0" width="23" height="26" filterUnits="userSpaceOnUse" color-interpolation-filters="sRGB">
<feFlood flood-opacity="0" result="BackgroundImageFix"/>
<feColorMatrix in="SourceAlpha" type="matrix" values="0 0 0 0 0 0 0 0 0 0 0 0 0 0 0 0 0 0 127 0" result="hardAlpha"/>
<feOffset dy="4"/>
<feGaussianBlur stdDeviation="2"/>
<feComposite in2="hardAlpha" operator="out"/>
<feColorMatrix type="matrix" values="0 0 0 0 0 0 0 0 0 0 0 0 0 0 0 0 0 0 0.25 0"/>
<feBlend mode="normal" in2="BackgroundImageFix" result="effect1_dropShadow_180_61"/>
<feBlend mode="normal" in="SourceGraphic" in2="effect1_dropShadow_180_61" result="shape"/>
</filter>
</defs>
</svg>
